# xmcd
#
# Track frame offsets: 
#        150
#        13132
#        24475
#        41750
#        59017
#        79335
#        89852
#        106207
#        118647
#        146222
#        157437
#        170697
#        181540
#        200822
#        214217
#        224797
#
# Disc length: 3175 seconds
#
# Revision: 0
# Processed by: cddbd v1.5.2PL0 Copyright (c) Steve Scherf et al.
# Submitted via: ExactAudioCopy v0.99pb5
#
DISCID=040c6510
DTITLE=Morris Britt - O Boogie do Milênio
DYEAR=2007
DGENRE=Blues Nacional
TTITLE0=Del Boogie
TTITLE1=C. Cow Blues
TTITLE2=Nature Love Call
TTITLE3=Beat Me Daddy, Eight To The Bar (Live)
TTITLE4=These Remind Me Of 1962
TTITLE5=In "C" Dental Boogie
TTITLE6=Peacefully After Underaged Love Affair
TTITLE7=Ghost Riders In the Sky
TTITLE8=Blues On Mogi River
TTITLE9=Whispering
TTITLE10=Bumble Bee Boogie
TTITLE11=Let's Go
TTITLE12=E --> Z St.
TTITLE13=Jealowist
TTITLE14=What'd I Say
TTITLE15=Uncle Asdrubal's Boogie Lesson
EXTD=
EXTT0=
EXTT1=
EXTT2=
EXTT3=
EXTT4=
EXTT5=
EXTT6=
EXTT7=
EXTT8=
EXTT9=
EXTT10=
EXTT11=
EXTT12=
EXTT13=
EXTT14=
EXTT15=
PLAYORDER=
